PathFileType	4	(X/Y/Z)	C:/Users/beibeiliu/ov580/test_trc\sequence.18_training_dense_left.trc
DataRate	CameraRate	NumFrames	NumMarkers	Units	OrigDataRate	OrigDataStartFrame	OrigNumFrames
120	120	17	19	mm	120	85	336
Frame#	Time	ThumbCMC			ThumbMCP			ThumbIP			ThumbTip			IndexMCP			IndexPIP			IndexTip			MiddleMCP			MiddlePIP			MiddleTip			RingMCP			RingPIP			RingTip			PinkyMCP			PinkyPIP			PinkyTip			BackHand1			BackHand2			BackHand3	
		X0	Y0	Z0	X1	Y1	Z1	X2	Y2	Z2	X3	Y3	Z3	X4	Y4	Z4	X5	Y5	Z5	X6	Y6	Z6	X7	Y7	Z7	X8	Y8	Z8	X9	Y9	Z9	X10	Y10	Z10	X11	Y11	Z11	X12	Y12	Z12	X13	Y13	Z13	X14	Y14	Z14	X15	Y15	Z15	X16	Y16	Z16	X17	Y17	Z17	X18	Y18	Z18	
84	0.7	-213.188	-6.99066	26.7072	-187.192	5.93665	30.7659	-165.458	13.6661	27.7881	-144.397	12.8242	28.5746	-165.417	-25.9564	-14.3488	-134.83	-27.7891	-5.44025	-128.686	-19.0313	17.8656	-154.521	-43.7222	-9.18224	-130.624	-44.5042	5.56179	-140.266	-32.5121	35.606	-158.211	-61.9634	3.54344	-137.589	-51.6226	21.8369	-148.9	-39.5967	43.7775	-164.686	-72.6108	16.506	-147.793	-67.0057	32.1799	-152.218	-45.9513	45.9225	-207.458	-63.6525	7.90779	-232.564	-57.3642	23.7433	-220.698	-33.3217	7.10356	
85	0.708333	-216.103	-8.54481	28.1281	-189.342	3.03697	28.5814	-168.971	10.1007	25.6641	-146.7	15.6607	23.7478	-165.445	-27.2094	-16.5824	-140.114	-25.6054	-13.2843	-130.194	-16.582	13.5558	-157.908	-42.9105	-12.0118	-130.354	-36.914	3.13011	-137.939	-28.5625	30.0474	-156.688	-61.9071	1.42642	-136.076	-47.7714	15.0207	-145.68	-38.1708	41.3335	-159.815	-75.1281	16.0283	-144.369	-63.4672	26.6761	-149.11	-42.9787	46.645	-206.656	-64.994	11.6322	-227.831	-59.8418	22.2022	-223.021	-35.8532	9.90921	
86	0.716667	-218.315	-12.8413	27.6553	-192.596	4.45832	26.645	-174.705	15.3315	23.1298	-148.65	19.5722	18.0857	-170.037	-27.6407	-18.1579	-141.081	-19.2393	-18.6814	-131.607	-10.2996	9.19674	-159.925	-45.7567	-12.6229	-132.857	-35.8705	-4.58507	-139.97	-24.6054	29.0929	-157.14	-57.4502	-1.19516	-134.785	-45.3862	13.5819	-141.639	-34.6654	33.9745	-160.979	-70.5945	12.7756	-142.257	-56.4783	21.535	-144.973	-42.1339	40.0407	-205.436	-65.9064	14.1386	-226.24	-62.7319	22.3683	-223.338	-38.888	8.15711	
87	0.725	-220.206	-12.9835	26.7536	-196.527	6.51151	24.2701	-177.107	12.9891	17.8514	-157.62	25.5292	14.2169	-172.102	-26.7299	-23.4931	-145.908	-19.3902	-24.0192	-134.305	-6.30834	1.2049	-160.467	-40.8357	-19.0815	-134.25	-29.6094	-10.9503	-138.361	-19.8081	18.1035	-157.249	-58.7574	-3.95634	-136.174	-42.249	4.60041	-143.963	-28.9002	28.8519	-160.315	-69.0306	10.7266	-139.205	-55.8915	19.2867	-144.055	-39.1328	34.5135	-204.129	-67.8665	11.8596	-226.648	-66.9876	27.5414	-223.53	-42.8797	8.64724	
88	0.733333	-221.545	-15.2612	23.202	-201.818	3.59112	20.7347	-182.776	19.2583	10.7816	-161.988	25.0726	6.75439	-178.408	-27.7161	-24.9165	-149.479	-14.8043	-29.4734	-137.952	-5.37292	-8.2334	-160.556	-43.2852	-22.4223	-136.181	-28.716	-14.3209	-140.546	-15.5486	10.8426	-158.926	-57.9781	-5.56139	-138.259	-40.4957	-1.63958	-143.332	-27.0571	22.1613	-159.395	-67.6548	7.32745	-140.395	-54.306	11.3572	-141.887	-37.1472	28.976	-204.604	-67.2042	11.663	-222.997	-70.4992	26.6065	-220.949	-44.3824	5.99209	
89	0.741667	-223.902	-19.1853	21.2423	-207.154	1.9425	16.2586	-190.012	16.0416	6.69796	-175.984	28.3757	2.5336	-182.485	-28.0661	-29.8379	-156.488	-14.5686	-35.8404	-145.47	3.0727	-15.3925	-165.034	-41.9291	-28.1549	-142.151	-23.2692	-24.1676	-145.151	-12.6247	4.82391	-160.328	-53.2091	-13.2773	-138.757	-36.5394	-7.92901	-147.178	-21.3519	13.5299	-158.961	-68.2232	5.73488	-140.166	-49.6132	5.76302	-147.874	-29.4759	20.412	-200.349	-70.2862	11.2909	-219.947	-74.356	27.1064	-222.995	-48.6666	4.55031	
90	0.75	-231.042	-20.44	20.7823	-213.276	0.353606	13.3022	-199.842	20.4646	1.35896	-182.477	29.3083	-5.53774	-189.271	-30.7238	-32.9411	-166.522	-16.6357	-44.2606	-153.621	3.57474	-22.5081	-173.836	-41.3926	-30.1058	-148.989	-24.3089	-33.7143	-152.1	-8.82162	-2.59061	-165.812	-51.4514	-17.2886	-143.671	-31.5142	-16.2693	-151.357	-17.5923	10.9161	-155.531	-63.8196	-1.28317	-143.212	-45.2696	-3.85758	-149.436	-26.4904	10.8554	-201.649	-66.2406	8.66614	-214.585	-74.4475	26.2605	-226.801	-51.3927	4.50401	
91	0.758333	-233.075	-21.9615	19.1354	-220.586	2.84507	11.2918	-208.368	19.3694	0.745151	-192.459	29.8999	-7.30972	-193.035	-27.1514	-40.2105	-172.052	-14.3309	-47.2645	-161.614	6.17657	-29.1318	-179.433	-39.4403	-34.4203	-153.784	-17.6871	-37.1702	-156.755	-5.32408	-8.60235	-164.002	-48.8081	-24.8711	-146.388	-30.3751	-21.4093	-152.247	-15.6457	2.37901	-161.208	-60.4176	-3.01892	-143.172	-41.3813	-6.44982	-150.602	-21.1256	9.59152	-200.467	-66.9493	5.99338	-214.447	-73.9697	23.7856	-223.593	-52.7652	4.57722	
92	0.766667	-233.033	-22.9851	19.6356	-220.255	-0.892632	11.5056	-210.46	18.808	-4.10385	-194.304	29.1794	-12.3376	-196.269	-29.3325	-37.6876	-174.921	-12.2792	-50.4949	-165.605	5.51357	-33.6043	-177.438	-41.1818	-36.3482	-156.156	-19.5926	-40.3815	-161.94	-1.78474	-12.5682	-164.594	-48.8992	-24.6604	-148.46	-25.6804	-24.1893	-155.449	-10.6064	-4.60463	-158.249	-58.6676	-6.67634	-144.651	-38.1583	-11.5592	-155.019	-17.7414	4.27526	-196.625	-67.7535	7.52176	-215.087	-72.8563	27.4408	-222.579	-55.9518	8.80888	
93	0.775	-231.842	-24.2319	19.1688	-220.656	1.39918	6.78717	-212.568	16.6367	-2.91177	-202.124	34.0815	-13.87	-201.049	-28.0933	-40.0008	-180.174	-11.4094	-53.6404	-170.991	11.5467	-33.5373	-178.181	-36.4858	-41.5126	-159.297	-16.4408	-44.7542	-162.102	-1.91298	-14.9181	-162.928	-45.5144	-27.5453	-150.816	-24.2592	-27.9132	-160.46	-6.7919	-5.63743	-160.09	-53.5929	-10.2846	-146.54	-32.8413	-14.8798	-156.968	-14.9497	2.74006	-198.542	-64.9237	4.48799	-212.065	-69.4417	25.1817	-223.481	-55.4211	6.23188	
94	0.783333	-230.53	-25.7593	19.2548	-224.974	4.24896	7.62481	-214.986	21.3985	-7.81257	-203.387	33.0455	-15.7437	-200.253	-25.3361	-43.8715	-180.102	-10.4288	-53.6458	-174.769	11.4073	-36.3136	-180.036	-34.3346	-43.0845	-161.979	-10.7848	-45.9973	-165.725	1.35475	-14.6521	-164.946	-42.0651	-28.2033	-153.832	-19.5471	-30.7999	-159.765	-3.71431	-4.35615	-158.918	-48.9253	-11.0466	-143.536	-31.5884	-14.0513	-155.367	-9.2515	0.937993	-196.49	-60.7476	6.5335	-208.718	-70.1155	25.7532	-219.748	-54.7797	6.93328	
95	0.791667	-230.453	-23.3138	18.4833	-226.045	4.33174	8.65415	-215.737	19.6074	-9.24062	-207.591	37.3458	-17.3481	-199.933	-25.4512	-45.4161	-180.915	-7.21156	-54.3586	-176.031	13.7125	-32.8069	-178.201	-35.022	-42.2494	-163.622	-12.6577	-49.9262	-166.807	3.11366	-18.1435	-164.093	-39.9342	-28.6583	-153.439	-18.5244	-32.1117	-159.536	-1.97028	-10.1387	-156.955	-48.3522	-8.68775	-145.851	-22.47	-15.4849	-159.037	-6.18274	-2.6349	-192.367	-61.1613	3.88057	-206.924	-65.2014	27.2076	-223.431	-51.3101	4.59284	
96	0.8	-230.95	-19.9549	17.1774	-224.923	5.23563	4.7636	-220.093	25.9116	-11.5286	-207.282	37.8466	-21.309	-203.056	-23.8809	-43.5752	-187.238	-3.4168	-58.0154	-179.469	17.5933	-35.7877	-181.576	-32.8546	-39.9038	-163.395	-9.73287	-49.2259	-167.831	7.15127	-23.5204	-168.901	-36.2076	-31.6831	-156.532	-11.8663	-34.567	-162.622	0.903903	-11.4222	-157.932	-42.3435	-14.8401	-149.002	-20.0146	-19.4349	-156.408	-3.39153	-3.7899	-191.596	-57.7876	4.69677	-203.512	-65.9679	25.1638	-223.447	-47.7074	8.12099	
97	0.808333	-230.544	-18.8054	17.923	-227.242	7.60273	5.66058	-220.854	23.1757	-8.56173	-209.762	41.2565	-24.4467	-207.317	-22.9346	-42.9987	-189.245	-0.576159	-59.3949	-184.322	20.9788	-38.3135	-181.195	-31.2462	-41.3393	-166.775	-5.38042	-51.5813	-173.156	11.0602	-25.9259	-169.435	-34.057	-32.734	-155.511	-10.9831	-36.0154	-163.533	3.84733	-13.1288	-158.38	-39.8746	-15.8534	-150.349	-16.4747	-23.6259	-158.473	1.93049	-7.24617	-194.525	-54.5904	2.7765	-202.758	-61.7739	29.5026	-219.218	-47.0747	5.29116	
98	0.816667	-234.301	-16.0176	17.4854	-231.751	11.2412	6.01111	-224.561	27.6665	-13.2016	-212.691	39.9248	-24.5484	-206.251	-21.5915	-43.3703	-191.894	0.308738	-60.2195	-186.52	21.8605	-43.0095	-183.784	-27.9844	-44.0297	-171.144	-5.74081	-56.0646	-176.397	12.6835	-25.7272	-168.957	-31.7677	-33.8682	-157.038	-10.0648	-39.1749	-165.472	6.88744	-18.8507	-158.941	-36.1898	-17.0253	-151.384	-14.611	-26.2878	-159.11	6.07536	-10.5952	-191.854	-51.3307	2.4531	-200.561	-59.0574	29.0852	-222.099	-44.0237	9.15627	
99	0.825	-230.551	-14.9292	14.6091	-231.244	11.8182	2.09741	-229.033	28.4721	-11.4878	-218.138	43.2151	-24.3278	-206.274	-19.899	-46.6365	-194.651	-2.09143	-62.7983	-188.775	23.2933	-44.3168	-185.602	-26.4659	-44.4748	-173.478	-0.268689	-55.8928	-180.33	14.8861	-26.9953	-168.819	-29.1303	-36.561	-162.348	-5.56877	-42.9775	-169.892	10.4997	-21.669	-162.124	-34.0809	-17.3539	-151.379	-14.3759	-29.2412	-159.868	5.58997	-16.822	-190.644	-50.9208	3.71156	-200.365	-55.3713	25.5909	-219.931	-45.6731	9.10443	
100	0.833333	-231.718	-13.2496	20.361	-234.171	14.782	2.6933	-230.812	29.5905	-11.3273	-222.652	46.0015	-26.1394	-210.766	-18.2348	-45.1931	-197.787	-1.83765	-62.928	-190.136	24.3038	-44.2479	-186.761	-23.6355	-49.6765	-175.891	0.015659	-58.4379	-184.021	16.6204	-29.6935	-174.26	-28.3093	-35.8697	-165.822	-4.95843	-46.2083	-170.19	13.7225	-22.5053	-158.891	-32.5297	-19.5344	-154.316	-12.3522	-32.6875	-161.157	9.15903	-19.8836	-191.042	-47.4877	2.52005	-202.42	-51.8016	28.9383	-221.435	-39.5499	8.19437	
